<?xml version="1.0" encoding="UTF-8"?>
<svg version="1.1" xmlns="http://www.w3.org/2000/svg" width="1254" height="1254">
<path d="M0 0 C413.82 0 827.64 0 1254 0 C1254 413.82 1254 827.64 1254 1254 C840.18 1254 426.36 1254 0 1254 C0 840.18 0 426.36 0 0 Z " fill="#06110D" transform="translate(0,0)"/>
<path d="M0 0 C8.58522775 -0.27872231 16.62205468 0.4483015 25.0625 2 C26.87028931 2.32895264 26.87028931 2.32895264 28.71459961 2.66455078 C48.33457116 6.41833606 67.470434 12.57524599 86 20 C86.66966797 20.26603027 87.33933594 20.53206055 88.02929688 20.80615234 C120.16185796 33.7365856 151.57822831 54.61860026 175.62890625 79.62890625 C177.11731243 81.17478606 177.11731243 81.17478606 179.5 82.9375 C182.33130312 85.27332508 184.56256652 87.83938309 186.9375 90.62890625 C189.26300351 93.30235442 191.69302433 95.86059554 194.125 98.4375 C217.17826759 123.32686855 233.93943171 153.35609139 248 184 C248.33773437 184.70995117 248.67546875 185.41990234 249.0234375 186.15136719 C251.98353629 192.51261949 254.17049489 199.1241832 256.35449219 205.78222656 C256.99474378 207.73397686 257.64127497 209.68355199 258.2890625 211.6328125 C259.5432357 215.41639956 260.77329748 219.20741542 262 223 C262.36657715 224.1152002 262.7331543 225.23040039 263.11083984 226.37939453 C265.54251114 233.96735328 267.24614951 241.53123636 268.625 249.375 C268.83737305 250.55892334 269.04974609 251.74284668 269.26855469 252.96264648 C276.13460707 291.73455237 281.34933327 346.73214859 266 384 C265.29731281 386.58017954 264.6294764 389.15245632 264 391.75 C263.82412354 392.4622876 263.64824707 393.1745752 263.46704102 393.90844727 C262.56762838 397.57419081 261.71546792 401.24378675 260.9375 404.9375 C258.63112481 415.39437057 254.14042863 425.16769407 250 435 C249.54625 436.08539062 249.0925 437.17078125 248.625 438.2890625 C234.87821091 470.19866066 217.12032129 498.69417222 194.54296875 525.02734375 C193.70378906 526.00832031 192.86460937 526.98929688 192 528 C190.68322266 529.21236328 190.68322266 529.21236328 189.33984375 530.44921875 C185.59112745 534.97931615 185.42089927 541.15538936 184.65823364 546.78594971 C184.37126385 548.9025568 184.06006801 551.01433024 183.74194336 553.12646484 C183.3286446 555.87944378 182.92297029 558.63330862 182.52587891 561.38867188 C177.15655405 598.26102715 163.59228295 632.11128673 138.109375 659.703125 C136.22100188 661.75935351 134.42019417 663.86286408 132.625 666 C107.41356623 694.71461705 69.5060968 712.37252018 35.875 729.0625 C16.45533942 738.68184098 16.45533942 738.68184098 -2 750 C-2 745.8920315 0.13794037 744.21471101 2.8125 741.375 C3.31458984 740.83794434 3.81667969 740.30088867 4.33398438 739.74755859 C9.17539124 734.66529325 14.39379008 730.21971086 20 726 C20.68094727 725.48711426 21.36189453 724.97422852 22.06347656 724.44580078 C31.83583328 717.11970471 41.7604931 710.01774921 51.75 702.9921875 C99.05301734 669.70894199 142.54231856 631.12738291 153.23046875 571.4453125 C154.81329843 561.99318354 156.14124845 552.54621367 157 543 C109.77124252 547.86010216 70.34458354 569.27232324 40 606 C31.44457931 616.60949365 23.59559951 627.69031977 16 639 C14.12719263 635.25438527 16.37144379 631.07439868 17.515625 627.24609375 C31.66911104 584.8952753 66.04874234 547.95772419 105.65625 528.1328125 C122.79752442 519.96411634 144.84601168 512.32531307 164.08984375 513.09765625 C171.64626548 513.32518056 171.64626548 513.32518056 177.80078125 509.390625 C180.09388588 506.44452862 181.98708267 503.29388336 183.82617188 500.04980469 C184.99803803 498.0034261 186.23861499 496.02127235 187.515625 494.0390625 C189.66338323 490.70048433 191.74633659 487.32725871 193.81054688 483.93652344 C194.91118354 482.1446002 196.03624827 480.37143779 197.171875 478.6015625 C218.57567214 444.78600916 232.16724537 405.01953536 238.41357422 365.63769531 C238.84101307 362.98622202 239.30272319 360.35337086 239.79345703 357.71386719 C242.16162283 344.38226409 242.39815481 331.27883741 242.28125 317.76171875 C242.24986484 314.10927089 242.24023631 310.45725755 242.234375 306.8046875 C242.18131874 290.11934621 241.55605292 274.28266556 238.25 257.875 C238.11616913 257.20124329 237.98233826 256.52748657 237.8444519 255.83331299 C223.99014697 186.10206932 189.20092812 119.10481396 134 73 C133.47229004 72.55317871 132.94458008 72.10635742 132.40087891 71.64599609 C116.70238047 58.39167797 99.91071222 47.04303405 82 37 C81.33355469 36.6189209 80.66710937 36.2378418 79.98046875 35.84521484 C67.82237029 28.91923011 55.13317082 23.78154809 42 19 C41.09137207 18.66693848 40.18274414 18.33387695 39.24658203 17.99072266 C27.88098002 13.87227077 16.63734188 10.84563752 4.734375 8.7265625 C1 8 1 8 0 7 C-0.04092937 4.66702567 -0.04241723 2.33294775 0 0 Z " fill="#DEAC45" transform="translate(672,233)"/>
<path d="M0 0 C0 2.64 0 5.28 0 8 C-1.17691406 8.20753906 -2.35382813 8.41507813 -3.56640625 8.62890625 C-54.4453413 17.97049225 -99.60026901 42.83189236 -138 77 C-138.53689453 77.47373047 -139.07378906 77.94746094 -139.62695312 78.43554688 C-153.46717946 90.69499402 -165.9726539 104.16106086 -177 119 C-177.52335937 119.69883301 -178.04671875 120.39766602 -178.5859375 121.11767578 C-186.01922104 131.07888643 -192.86388735 141.19351867 -199 152 C-199.39783691 152.69029297 -199.79567383 153.38058594 -200.20556641 154.09179688 C-225.5946646 198.19334395 -241.80308799 249.24764749 -242.23828125 300.44921875 C-242.2480751 301.41256638 -242.25786896 302.375914 -242.26795959 303.36845398 C-242.66451303 352.55119797 -235.03346093 398.72826502 -215 444 C-214.44820068 445.26408691 -214.44820068 445.26408691 -213.88525391 446.55371094 C-204.10837956 468.74315092 -191.37089445 489.50729887 -177 509 C-176.01 510.485 -176.01 510.485 -175 512 C-172.08714611 512.43356945 -169.30563647 512.69709747 -166.375 512.875 C-130.00680839 515.84220268 -96.56387003 528.98235887 -69 553 C-68.03578125 553.83015625 -67.0715625 554.6603125 -66.078125 555.515625 C-43.4806498 575.342613 -18.19364547 608.23672114 -15 639 C-17.34359819 636.79459284 -19.13584373 634.48964606 -20.93359375 631.82421875 C-21.49393311 631.00308594 -22.05427246 630.18195312 -22.6315918 629.3359375 C-23.2275415 628.46195313 -23.82349121 627.58796875 -24.4375 626.6875 C-30.47246276 617.95719714 -36.88955671 609.86583651 -44 602 C-44.93551222 600.94325369 -45.87041359 599.88596627 -46.8046875 598.828125 C-73.42617355 568.9359321 -106.87126062 551.0753543 -146 544 C-147.00869141 543.81614746 -148.01738281 543.63229492 -149.05664062 543.44287109 C-151.70417983 542.9605379 -154.35197622 542.47966451 -157 542 C-154.86456153 562.14127432 -154.86456153 562.14127432 -151 582 C-150.84337891 582.64243652 -150.68675781 583.28487305 -150.52539062 583.94677734 C-143.28094677 612.84822242 -127.42775519 636.74015703 -107 658 C-106.51241211 658.50950195 -106.02482422 659.01900391 -105.52246094 659.54394531 C-98.74583135 666.58545944 -91.68193801 672.94172128 -84 679 C-82.85654242 679.93171858 -81.714697 680.86541816 -80.57421875 681.80078125 C-71.3557447 689.32924291 -61.78335095 696.2289727 -52 703 C-29.15733601 718.8399668 -29.15733601 718.8399668 -19 727 C-18.45263184 727.43908691 -17.90526367 727.87817383 -17.34130859 728.33056641 C-9.86219918 734.36998475 -3.19671178 740.61838726 3 748 C2.67 748.66 2.34 749.32 2 750 C0.89527344 749.34515625 -0.20945312 748.6903125 -1.34765625 748.015625 C-16.22529952 739.26187245 -31.42634031 731.20715339 -46.9140625 723.5859375 C-74.61986007 709.94668614 -100.86984155 694.9439709 -123.75390625 674.0234375 C-125.52725596 672.42588072 -127.31683982 670.91616508 -129.1875 669.4375 C-132.85759625 666.25674992 -135.88762778 662.71826435 -139 659 C-140.03640625 657.79537109 -140.03640625 657.79537109 -141.09375 656.56640625 C-164.95428052 628.29503822 -178.37547302 594.50744471 -183 558 C-183.38876748 555.03625386 -183.78226269 552.07334604 -184.18579102 549.11157227 C-184.42906774 547.30394578 -184.65964605 545.49454393 -184.87475586 543.68334961 C-185.8918465 535.829716 -189.23204383 531.55222459 -194.4375 525.6875 C-204.99822954 513.55736912 -214.35766212 500.5542489 -223 487 C-223.36125977 486.43587402 -223.72251953 485.87174805 -224.09472656 485.29052734 C-242.90589486 455.64790552 -257.79979709 422.1584827 -265.1875 387.71875 C-265.60171366 384.21832731 -265.60171366 384.21832731 -267 383 C-267.34695532 381.0976887 -267.63669141 379.18488894 -267.90234375 377.26953125 C-268.07056641 376.07263672 -268.23878906 374.87574219 -268.41210938 373.64257812 C-268.67217773 371.74668945 -268.67217773 371.74668945 -268.9375 369.8125 C-269.10701172 368.59884766 -269.27652344 367.38519531 -269.45117188 366.13476562 C-269.79681794 363.66004495 -270.13970485 361.18493749 -270.47998047 358.70947266 C-270.81980914 356.28536146 -271.17246128 353.86300413 -271.53955078 351.44287109 C-273.56745191 337.99557489 -274.20534527 324.64810583 -274.1875 311.0625 C-274.18756042 310.34855072 -274.18762085 309.63460144 -274.18768311 308.89901733 C-274.17247206 296.18771122 -273.52086146 283.62807286 -272 271 C-271.90928223 270.24557617 -271.81856445 269.49115234 -271.72509766 268.71386719 C-270.36024932 257.72049865 -270.36024932 257.72049865 -269 255 C-268.72594083 252.8640785 -268.55554757 250.72803539 -268.37890625 248.58203125 C-267.89447339 245.280896 -266.93420957 242.20300425 -266 239 C-265.66689292 237.62060575 -265.34311583 236.23893426 -265.02734375 234.85546875 C-254.22494058 188.14428308 -231.57514967 143.87003343 -201 107 C-200.58105469 106.49082031 -200.16210938 105.98164063 -199.73046875 105.45703125 C-193.80929192 98.27312506 -187.70254371 91.47491015 -181 85 C-178.55005666 82.56556263 -176.11593613 80.11949731 -173.7109375 77.640625 C-167.8145397 71.60618444 -161.62972371 66.21035197 -155 61 C-153.57300781 59.84757812 -153.57300781 59.84757812 -152.1171875 58.671875 C-110.95361316 26.03579304 -53.59618251 -0.86445456 0 0 Z " fill="#DEAC45" transform="translate(582,233)"/>
<path d="M0 0 C-1.53807731 4.02681282 -3.41522415 7.19999383 -5.875 10.75 C-14.61209133 23.87284669 -20.72832297 38.73529454 -27.0625 53.125 C-37.62991746 77.09773765 -49.04411473 99.84952765 -66 120 C-66.96491349 121.16921328 -67.92975579 122.33848532 -68.89453125 123.5078125 C-78.88420714 135.49476548 -89.6348323 146.4459064 -102 156 C-103.32837891 157.05380859 -103.32837891 157.05380859 -104.68359375 158.12890625 C-131.00386872 178.53533303 -160.83345091 191.99670652 -192.04760742 202.94921875 C-194.91208902 203.96871175 -197.75554894 205.0357316 -200.6015625 206.10546875 C-205.84465052 208.01680024 -211.12465427 209.39225943 -216.5625 210.625 C-217.43068359 210.82867188 -218.29886719 211.03234375 -219.19335938 211.2421875 C-224.34944881 212.44002808 -229.52105959 213.52881748 -234.71508789 214.54882812 C-236.65571354 214.93201823 -238.59206607 215.3367493 -240.52734375 215.74609375 C-262.21606676 220.14346371 -283.90549414 221.53714358 -306 221 C-302.29630747 217.67056107 -298.13078455 216.51833882 -293.46484375 215.09375 C-292.20715431 214.70382874 -292.20715431 214.70382874 -290.92405701 214.30603027 C-282.71766532 211.81794427 -274.41503751 209.87725722 -266.04196167 208.04464722 C-251.85253995 204.92774925 -237.75963177 201.70886481 -224 197 C-223.13777832 196.70802734 -222.27555664 196.41605469 -221.38720703 196.11523438 C-187.66605765 184.58235057 -155.69988336 168.58198387 -128 146 C-127.44924805 145.55221191 -126.89849609 145.10442383 -126.33105469 144.64306641 C-112.56422026 133.35896879 -99.92431263 121.07988084 -89.31054688 106.75927734 C-87.98202909 104.97587587 -86.62639963 103.21590484 -85.265625 101.45703125 C-68.37304155 79.37338884 -56.48215685 53.71192437 -46.77099609 27.77978516 C-46 26 -46 26 -44 23 C-84.49440419 24.03723693 -121.71465473 29.48224577 -158.03320312 48.94677734 C-160.20721224 50.11096246 -162.39189433 51.25347226 -164.578125 52.39453125 C-172.34306073 56.39519391 -172.34306073 56.39519391 -179.86328125 60.82421875 C-180.56839844 61.21222656 -181.27351562 61.60023438 -182 62 C-182.66 61.67 -183.32 61.34 -184 61 C-174.55955067 42.28472327 -155.67620992 30.14969588 -138 20 C-137.36900391 19.63664551 -136.73800781 19.27329102 -136.08789062 18.89892578 C-120.56513396 10.05517836 -104.32720795 4.20718168 -87 0 C-86.03852051 -0.25185059 -86.03852051 -0.25185059 -85.05761719 -0.50878906 C-57.90203424 -7.57632127 -27.26128054 -5.16254922 0 0 Z " fill="#DDAB45" transform="translate(1038,738)"/>
<path d="M0 0 C1.13180191 -0.0049926 1.13180191 -0.0049926 2.28646851 -0.01008606 C3.87472939 -0.01511564 5.46300069 -0.01749562 7.05126953 -0.01733398 C9.43410486 -0.01950678 11.81646583 -0.03766731 14.19921875 -0.05664062 C23.59102652 -0.09150878 32.55937853 0.54349192 41.8359375 2.16796875 C42.67398926 2.2980835 43.51204102 2.42819824 44.37548828 2.56225586 C81.18505709 8.34639228 121.38052565 27.18214787 145.8359375 56.16796875 C147.79852161 59.39916015 149.41979431 62.66487771 150.8359375 66.16796875 C147.375062 64.84069481 144.115587 63.33361586 140.84375 61.59375 C139.89918945 61.09447998 138.95462891 60.59520996 137.98144531 60.08081055 C136.98467773 59.55269775 135.98791016 59.02458496 134.9609375 58.48046875 C119.9198487 50.59269652 104.94245399 43.59319671 88.8359375 38.16796875 C87.91635254 37.85794922 86.99676758 37.54792969 86.04931641 37.22851562 C61.31318923 29.06278511 36.69415673 27.67236984 10.8359375 27.16796875 C11.21363281 27.96074219 11.59132813 28.75351562 11.98046875 29.5703125 C15.37563063 36.7661474 18.64538031 44.00041323 21.80541992 51.30297852 C31.64251579 73.9793897 43.14527104 94.97685193 58.8359375 114.16796875 C59.29049316 114.72548828 59.74504883 115.28300781 60.21337891 115.85742188 C70.87534481 128.83466202 82.44869411 140.97446822 95.8359375 151.16796875 C96.52316895 151.69390625 97.21040039 152.21984375 97.91845703 152.76171875 C108.19017974 160.58945726 118.55357819 167.88023191 129.8359375 174.16796875 C130.70750488 174.65571777 131.57907227 175.1434668 132.47705078 175.64599609 C135.38346099 177.26650692 138.29548829 178.87628002 141.2109375 180.48046875 C142.12657471 180.98465332 143.04221191 181.48883789 143.9855957 182.00830078 C149.49857732 185.00554299 155.05563984 187.7266137 160.8359375 190.16796875 C161.94195312 190.6371875 163.04796875 191.10640625 164.1875 191.58984375 C168.05464958 193.15885432 171.9380874 194.67709376 175.8359375 196.16796875 C176.6108252 196.46719238 177.38571289 196.76641602 178.18408203 197.07470703 C191.08999266 201.99452697 204.19839195 205.71304574 217.5859375 209.04296875 C218.36061371 209.23605621 219.13528992 209.42914368 219.93344116 209.62808228 C227.70398539 211.55379583 235.45692113 213.32957594 243.35058594 214.68457031 C247.68287728 215.52719672 251.87204827 216.80662246 256.0859375 218.10546875 C256.9315625 218.35748047 257.7771875 218.60949219 258.6484375 218.86914062 C263.53583117 220.3528137 268.18268291 222.06142782 272.8359375 224.16796875 C272.8359375 224.49796875 272.8359375 224.82796875 272.8359375 225.16796875 C245.79179447 226.00674689 219.16016627 223.62388639 192.8359375 217.16796875 C191.5054049 216.85723003 190.17467661 216.54732803 188.84375 216.23828125 C171.9777498 212.24435915 154.97522837 207.45292766 139.19873047 200.21630859 C136.91197397 199.20170512 134.60718081 198.28715471 132.2734375 197.38671875 C93.78474125 182.04925097 57.37485728 155.94445244 31.8359375 123.16796875 C31.05992187 122.22050781 30.28390625 121.27304687 29.484375 120.296875 C21.91452501 110.8646016 15.83949093 100.64845147 9.8359375 90.16796875 C9.47290527 89.5426123 9.10987305 88.91725586 8.73583984 88.27294922 C3.00699644 78.33934557 -1.51597552 67.83842188 -6.16235352 57.37158203 C-16.63275385 32.14381364 -16.63275385 32.14381364 -30.8515625 8.9921875 C-32.1640625 7.16796875 -32.1640625 7.16796875 -32.1640625 5.16796875 C-29.66551483 4.51604187 -27.1654488 3.87133811 -24.6640625 3.23046875 C-23.96796875 3.04806641 -23.271875 2.86566406 -22.5546875 2.67773438 C-21.85859375 2.50048828 -21.1625 2.32324219 -20.4453125 2.140625 C-19.50268555 1.89711304 -19.50268555 1.89711304 -18.54101562 1.64868164 C-12.36949526 0.40055884 -6.28443015 0.00995869 0 0 Z " fill="#DEAB45" transform="translate(249.1640625,733.83203125)"/>
<path d="M0 0 C3.81628832 1.54572776 5.97025743 3.88771245 8.6875 6.9375 C9.12465332 7.42766602 9.56180664 7.91783203 10.01220703 8.42285156 C14.4968118 13.48930423 18.76287721 18.72591523 23 24 C23.9588296 25.16732902 24.91850832 26.33396095 25.87890625 27.5 C49.85245127 56.7752754 66.32720013 87.23024089 64 126 C63.34209688 131.22257407 61.81913235 136.06964131 60 141 C59.57589844 142.22460938 59.15179687 143.44921875 58.71484375 144.7109375 C50.14898547 168.40380202 32.97049002 187.62594537 16.0078125 205.765625 C13.93523646 207.98305123 11.89205068 210.22329884 9.8671875 212.484375 C9.36445312 213.04310303 8.86171875 213.60183105 8.34375 214.17749023 C7.38378143 215.24612545 6.4278634 216.31841695 5.4765625 217.39477539 C4.35815413 218.63424641 3.18367025 219.82269357 2 221 C1.34 221 0.68 221 0 221 C-1.41015625 219.56640625 -1.41015625 219.56640625 -3.0625 217.5625 C-5.75174994 214.39242783 -8.53513377 211.41418475 -11.5 208.5 C-15.54858831 204.49230653 -19.30855756 200.33538574 -23 196 C-23.81082031 195.07832031 -24.62164063 194.15664063 -25.45703125 193.20703125 C-41.79830989 174.49982354 -55.06216075 154.33133198 -61 130 C-61.26611084 129.05846069 -61.26611084 129.05846069 -61.53759766 128.09790039 C-67.46902647 101.18725212 -55.96859208 74.42374287 -41.84765625 52.30859375 C-31.6154197 36.65867557 -19.7989953 21.9959021 -7.1015625 8.28515625 C-4.63111776 5.59889199 -2.29791841 2.83409937 0 0 Z M0 39 C-22.29436475 61.58916627 -40.3125 91.0863329 -40.3125 123.34106445 C-39.93394808 149.62246154 -25.90493126 173.95802455 -10.140625 194.23046875 C-7.17453422 198.06798401 -4.40766905 202.04115215 -1.62890625 206.015625 C-1.09136719 206.67046875 -0.55382812 207.3253125 0 208 C0.66 208 1.32 208 2 208 C3.52789236 206.39292424 3.52789236 206.39292424 5.08984375 204.2578125 C5.70400146 203.44795898 6.31815918 202.63810547 6.95092773 201.80371094 C7.60649658 200.91973633 8.26206543 200.03576172 8.9375 199.125 C9.61047119 198.22040039 10.28344238 197.31580078 10.97680664 196.38378906 C17.2079078 187.89794006 22.8283438 179.16600756 28 170 C28.37737305 169.34112793 28.75474609 168.68225586 29.14355469 168.00341797 C40.88412808 147.21999404 46.36763323 123.34617245 40.1875 99.8125 C33.94995472 79.03878277 20.74040927 61.3744403 7 45 C6.47148438 44.33613281 5.94296875 43.67226563 5.3984375 42.98828125 C4.30967095 41.62254777 3.16256841 40.3034858 2 39 C1.34 39 0.68 39 0 39 Z " fill="#DEAC45" transform="translate(626,798)"/>
<path d="M0 0 C0.33 0 0.66 0 1 0 C1.01417969 1.21171875 1.02835938 2.4234375 1.04296875 3.671875 C1.62807013 28.79577374 9.34255321 51.45529714 24 72 C24.3820459 72.54221191 24.7640918 73.08442383 25.15771484 73.64306641 C30.80929585 81.63761203 36.80482204 89.30766757 43.01538086 96.87329102 C72.08135002 132.35447039 93.41882472 165.70540137 89.82714844 213.29003906 C86.22428651 247.05639617 64.81698555 278.13295657 41.5625 301.6875 C41.06637207 302.19297363 40.57024414 302.69844727 40.05908203 303.21923828 C37.55400499 305.70207838 35.28882489 307.67047504 32 309 C33.73511047 304.02402227 36.44695691 299.69557693 39.125 295.1875 C58.88943326 261.3912589 73.60451799 221.07298604 63.37939453 181.60449219 C56.31878703 156.57360804 42.77220659 135.10184205 28.08105469 113.91918945 C16.26416096 96.86903908 5.38762908 79.86408562 -1 60 C-1.21172852 59.35933594 -1.42345703 58.71867188 -1.64160156 58.05859375 C-7.00938992 41.21513743 -8.64802772 18.00329242 -0.8984375 1.6796875 C-0.45371094 0.84824219 -0.45371094 0.84824219 0 0 Z " fill="#DDAB45" transform="translate(645,537)"/>
<path d="M0 0 C2.15465933 2.15465933 2.63689477 3.40049281 3.5625 6.25 C3.81128906 6.99765625 4.06007813 7.7453125 4.31640625 8.515625 C11.12806517 33.27113969 4.25265682 59.73385636 -7 82 C-7.30180176 82.60344238 -7.60360352 83.20688477 -7.91455078 83.82861328 C-13.84440003 95.46799818 -21.39259613 106.06065425 -28.7734375 116.80859375 C-52.32703383 151.17826334 -71.80521817 188.03877288 -64.015625 231.1328125 C-62.90188206 236.48675956 -61.51810099 241.74797227 -60 247 C-59.7009375 248.08667969 -59.401875 249.17335938 -59.09375 250.29296875 C-58.18926818 253.26184657 -57.13900133 256.11219354 -56 259 C-55.7117334 259.73476563 -55.4234668 260.46953125 -55.12646484 261.2265625 C-48.49303294 277.92958985 -40.07148348 293.13850063 -30 308 C-30.33 308.66 -30.66 309.32 -31 310 C-54.48199477 289.22426349 -71.92225553 265.46081233 -83 236 C-83.4125 234.9171875 -83.825 233.834375 -84.25 232.71875 C-93.96209298 205.58201962 -89.82458081 175.67840737 -78.59375 149.75390625 C-69.86170222 131.48937298 -56.83509711 115.50101343 -44 100 C-18.81161325 69.41345486 -1.04012339 40.51884009 0 0 Z " fill="#DDAB45" transform="translate(608,537)"/>
<path d="M0 0 C0.99 0.495 0.99 0.495 2 1 C1.34515625 1.52207031 0.6903125 2.04414063 0.015625 2.58203125 C-9.32596689 10.11599872 -18.64892091 17.83597042 -26.375 27.06640625 C-28.10618418 29.12634896 -29.9243846 31.08597688 -31.75 33.0625 C-45.92195839 49.06397903 -56.97966484 67.69358965 -66 87 C-66.49757813 88.04285156 -66.99515625 89.08570313 -67.5078125 90.16015625 C-76.28271785 109.50810329 -82.22055396 130.13549056 -86 151 C-86.16226074 151.8254834 -86.32452148 152.6509668 -86.49169922 153.50146484 C-89.01522783 166.55662372 -89.28418463 179.56027995 -89.3125 192.8125 C-89.31617584 193.63580811 -89.31985168 194.45911621 -89.32363892 195.30737305 C-89.35015163 206.68260161 -88.60989475 217.74048948 -87 229 C-86.8337915 230.16619873 -86.66758301 231.33239746 -86.49633789 232.53393555 C-78.74712529 283.82884449 -56.80083348 327.46469588 -24 367 C-32.28410261 367 -42.43547052 354.41034411 -48.36083984 348.65039062 C-62.55900913 334.35494463 -73.42479363 317.6269143 -83 300 C-83.35803711 299.34821777 -83.71607422 298.69643555 -84.08496094 298.02490234 C-95.03488942 277.71144965 -102.99679726 252.84992589 -106 230 C-106.17007568 228.73438232 -106.34015137 227.46876465 -106.51538086 226.16479492 C-107.994802 214.50307759 -108.44038509 202.93597914 -108.4375 191.1875 C-108.4385675 190.25378571 -108.43963501 189.32007141 -108.44073486 188.35806274 C-108.41348466 171.73667742 -106.82964825 156.21681024 -103 140 C-102.67902344 138.56019775 -102.67902344 138.56019775 -102.3515625 137.09130859 C-93.36079271 97.33351409 -72.68691073 62.45328634 -45 33 C-44.06800781 31.96939453 -44.06800781 31.96939453 -43.1171875 30.91796875 C-32.89501655 20.03112749 -19.85387051 11.4388357 -7 4 C-6.24589844 3.5359375 -5.49179687 3.071875 -4.71484375 2.59375 C-3.18203247 1.6621029 -1.59720174 0.81634756 0 0 Z " fill="#DEAC45" transform="translate(503,338)"/>
<path d="M0 0 C16.72303948 6.43881734 30.87499141 18.05658971 44 30 C44.77706299 30.70697021 44.77706299 30.70697021 45.56982422 31.42822266 C54.54384409 39.71614656 61.86841058 49.11212886 69 59 C69.44585449 59.61182129 69.89170898 60.22364258 70.35107422 60.85400391 C87.95624531 85.24132856 99.41292517 113.76699869 106 143 C106.31541748 144.37575195 106.31541748 144.37575195 106.63720703 145.77929688 C118.81298117 201.65482097 107.38661035 265.60925407 77.41015625 314.11425781 C75.67726596 316.79530426 73.85824128 319.40457708 72 322 C71.28457031 323.00546875 70.56914063 324.0109375 69.83203125 325.046875 C58.85534538 340.04510773 46.76685947 353.63324094 32 365 C30.33105851 366.33048482 28.66378986 367.66307859 27 369 C26.34 368.67 25.68 368.34 25 368 C25.48726562 367.49855469 25.97453125 366.99710938 26.4765625 366.48046875 C60.96770076 329.66901756 81.58925702 280.45744593 89 231 C89.17789063 229.8236499 89.17789063 229.8236499 89.359375 228.62353516 C92.65005738 205.6426238 92.30702761 180.95015921 89 158 C88.89816406 157.25862793 88.79632812 156.51725586 88.69140625 155.75341797 C82.91975441 114.5769574 66.66219132 74.78239365 41 42 C39.87658203 40.55753906 39.87658203 40.55753906 38.73046875 39.0859375 C27.77284248 25.3839688 15.71080661 13.28961005 1.8359375 2.53125 C1.23007812 2.0259375 0.62421875 1.520625 0 1 C0 0.67 0 0.34 0 0 Z " fill="#DEAC46" transform="translate(749,338)"/>
<path d="M0 0 C8.84128347 6.38886487 16.10307726 14.99784809 18 26 C18.99252245 38.36141602 16.88015526 49.24553671 9 59 C1.46481767 67.75710379 -7.84021916 72.20272346 -19.23828125 73.31640625 C-30.32192846 73.72015838 -38.79418931 70.40399551 -47 63 C-55.44411435 54.67676254 -59.49949286 45.88298748 -60.25 34.0625 C-59.82730015 22.17993764 -55.90067076 12.32849403 -47.1875 4.0625 C-34.16244899 -6.91940575 -14.70303234 -9.05452927 0 0 Z " fill="#DFAC45" transform="translate(648,459)"/>
<path d="M0 0 C6.19361411 3.68300954 10.75013095 9.03300371 13.0390625 15.88671875 C14.32384154 22.29924423 12.9253051 28.60809501 9.78515625 34.26953125 C6.70099119 38.57258789 2.42414409 42.15269437 -2.51953125 44.08984375 C-9.77362769 44.9385373 -16.82349215 45.27739277 -22.83984375 40.70703125 C-28.43995681 35.31529449 -32.37114645 29.73774007 -32.58203125 21.7109375 C-32.23741941 14.65716389 -29.97265219 9.56952716 -24.99609375 4.5546875 C-17.91193789 -1.61248372 -9.0274265 -3.26107035 0 0 Z " fill="#DFAC45" transform="translate(636.51953125,210.91015625)"/>
<path d="M0 0 C0.66 0 1.32 0 2 0 C1.8550291 2.37505522 1.70902146 4.75004028 1.5625 7.125 C1.50352539 8.09373047 1.50352539 8.09373047 1.44335938 9.08203125 C1.23753517 12.40688384 1.02118278 15.72911195 0.76147461 19.05029297 C0.01992069 28.65656662 -0.31128058 38.24663136 -0.5625 47.875 C-0.60584074 49.44922646 -0.64945903 51.0234453 -0.69335938 52.59765625 C-0.7987599 56.39835766 -0.90044912 60.19914106 -1 64 C-3.8220776 61.1779224 -3.25835376 59.34515427 -3.265625 55.39453125 C-3.26830887 54.72655518 -3.27099274 54.0585791 -3.27375793 53.37036133 C-3.27771629 51.18421549 -3.26501335 48.99859262 -3.25 46.8125 C-3.2478952 46.07123871 -3.24579041 45.32997742 -3.24362183 44.56625366 C-3.19385711 29.6660542 -2.66913778 14.69228096 0 0 Z " fill="#CCA243" transform="translate(311,498)"/>
<path d="M0 0 C3.81220594 3.81220594 5.16160581 9.68648461 5.375 15 C5.20825665 19.59470559 3.65285339 23.74980557 2 28 C-0.29755922 24.55366118 -0.23643976 23.28931609 -0.1953125 19.23828125 C-0.18886719 18.12001953 -0.18242188 17.00175781 -0.17578125 15.84960938 C-0.15902344 14.68236328 -0.14226563 13.51511719 -0.125 12.3125 C-0.11597656 11.13365234 -0.10695313 9.95480469 -0.09765625 8.74023438 C-0.07406423 5.82661974 -0.0411454 2.91341108 0 0 Z " fill="#D4AA4D" transform="translate(608,537)"/>
<path d="M0 0 C0.33 0 0.66 0 1 0 C1 7.92 1 15.84 1 24 C-1.475 23.01 -1.475 23.01 -4 22 C-4.57184845 13.78762084 -3.26682231 7.53994257 0 0 Z " fill="#D5AD53" transform="translate(645,537)"/>
<path d="M0 0 C6.64715847 3.42429376 11.53757408 9.10959779 16 15 C15.67 15.66 15.34 16.32 15 17 C10.05 14.03 5.1 11.06 0 8 C0.99 6.68 1.98 5.36 3 4 C2.01 3.34 1.02 2.68 0 2 C0 1.34 0 0.68 0 0 Z " fill="#CE9F3E" transform="translate(569,966)"/>
<path d="M0 0 C0.87269531 0.28101563 1.74539063 0.56203125 2.64453125 0.8515625 C5.15333267 1.71890257 7.62631805 2.63182116 10.0625 3.6875 C10.0625 4.0175 10.0625 4.3475 10.0625 4.6875 C0.8225 4.6875 -8.4175 4.6875 -17.9375 4.6875 C-17.9375 4.3575 -17.9375 4.0275 -17.9375 3.6875 C-15.2975 3.3575 -12.6575 3.0275 -9.9375 2.6875 C-9.6075 1.6975 -9.2775 0.7075 -8.9375 -0.3125 C-5.64284914 -1.75803724 -3.32884986 -1.08226089 0 0 Z " fill="#C79E3E" transform="translate(511.9375,954.3125)"/>
<path d="M0 0 C0.66 0.33 1.32 0.66 2 1 C1.28714844 1.58007812 0.57429688 2.16015625 -0.16015625 2.7578125 C-5.49632259 7.11005584 -10.79630884 11.49013433 -16 16 C-16.66 15.01 -17.32 14.02 -18 13 C-16.84556105 9.53668314 -16.27570341 9.26722481 -13.25390625 7.484375 C-12.49916016 7.03835938 -11.74441406 6.59234375 -10.96679688 6.1328125 C-10.17337891 5.67648437 -9.37996094 5.22015625 -8.5625 4.75 C-7.77294922 4.27820313 -6.98339844 3.80640625 -6.16992188 3.3203125 C-1.77941609 0.76011987 -1.77941609 0.76011987 0 0 Z " fill="#D8AC49" transform="translate(503,338)"/>
<path d="M0 0 C1.5 1.375 1.5 1.375 3 3 C3 3.66 3 4.32 3 5 C1.49096123 6.35373964 -0.08412698 7.63443401 -1.6875 8.875 C-2.55761719 9.55304687 -3.42773438 10.23109375 -4.32421875 10.9296875 C-5.64873047 11.95449219 -5.64873047 11.95449219 -7 13 C-8.6689101 14.33052419 -10.33626195 15.66301411 -12 17 C-12.66 16.67 -13.32 16.34 -14 16 C-13.40832031 15.34773437 -12.81664062 14.69546875 -12.20703125 14.0234375 C-8.04481368 9.41987549 -3.92330844 4.8092168 0 0 Z " fill="#E3B44A" transform="translate(788,690)"/>
<path d="M0 0 C1.89453125 0.2421875 1.89453125 0.2421875 4 1 C5.01171875 2.8203125 5.01171875 2.8203125 5.6875 5.125 C5.9246875 5.93066406 6.161875 6.73632812 6.40625 7.56640625 C7.17391737 10.71283239 7.65746029 13.78012668 8 17 C5.59875195 14.7289401 3.650522 12.32816965 1.75 9.625 C1.20859375 8.87476563 0.6671875 8.12453125 0.109375 7.3515625 C-1.25813343 4.45282985 -0.91525368 3.01182317 0 0 Z " fill="#CFA547" transform="translate(559,855)"/>
<path d="M0 0 C4.49797113 1.68673918 8.72886302 3.81673892 13 6 C13 6.66 13 7.32 13 8 C14.96147874 9.38938077 16.96166576 10.7260411 19 12 C18.67 13.32 18.34 14.64 18 16 C17.071875 15.195625 16.14375 14.39125 15.1875 13.5625 C10.92414514 9.89566392 6.54342372 6.37742121 2.16015625 2.85546875 C1.44730469 2.24316406 0.73445312 1.63085938 0 1 C0 0.67 0 0.34 0 0 Z " fill="#D1A743" transform="translate(749,338)"/>
<path d="M0 0 C1.51303711 0.00676758 1.51303711 0.00676758 3.05664062 0.01367188 C5.51699147 0.02533231 7.97721239 0.04169622 10.4375 0.0625 C10.4375 0.3925 10.4375 0.7225 10.4375 1.0625 C-0.94394957 2.34491685 -12.0943511 3.40426603 -23.5625 3.0625 C-16.96162746 -1.33808169 -7.67425444 -0.06602601 0 0 Z " fill="#E4B54D" transform="translate(974.5625,758.9375)"/>
<path d="M0 0 C-2.6855594 2.6855594 -5.37621328 3.06049974 -9 4 C-4.71 4.33 -0.42 4.66 4 5 C4 5.33 4 5.66 4 6 C-3.26 6 -10.52 6 -18 6 C-15.03540489 3.03540489 -13.96274927 2.41483224 -10.125 1.3125 C-9.28195312 1.06113281 -8.43890625 0.80976562 -7.5703125 0.55078125 C-4.96661379 -0.00715419 -2.65399031 -0.09988136 0 0 Z " fill="#ECBC4A" transform="translate(753,952)"/>
<path d="M0 0 C1.65 0.33 3.3 0.66 5 1 C2.81228319 5.38290023 0.65451224 7.11595263 -3.6875 9.3125 C-4.68136719 9.82425781 -5.67523437 10.33601562 -6.69921875 10.86328125 C-7.45847656 11.23839844 -8.21773437 11.61351562 -9 12 C-7.55575365 8.76138697 -5.74227753 6.38030837 -3.375 3.75 C-2.74335937 3.04359375 -2.11171875 2.3371875 -1.4609375 1.609375 C-0.97882812 1.07828125 -0.49671875 0.5471875 0 0 Z " fill="#D3A43D" transform="translate(678,971)"/>
<path d="M0 0 C-0.33 0.99 -0.66 1.98 -1 3 C-7.40795994 5.25671633 -14.21416825 6.47343012 -21 6 C-17.62473371 3.74982247 -14.36925005 2.86995001 -10.5 1.875 C-9.82324219 1.69324219 -9.14648438 1.51148438 -8.44921875 1.32421875 C-5.54810937 0.56317822 -3.0122546 0 0 0 Z " fill="#1B1B10" transform="translate(936,766)"/>
<path d="M0 0 C2.9156164 3.54039134 5.50127818 7.1626772 8 11 C7.67 11.66 7.34 12.32 7 13 C5.32448647 11.57282151 3.65980691 10.13291518 2 8.6875 C0.6078125 7.48673828 0.6078125 7.48673828 -0.8125 6.26171875 C-3 4 -3 4 -3 1 C-2.01 0.67 -1.02 0.34 0 0 Z " fill="#D3A742" transform="translate(570,834)"/>
<path d="M0 0 C5.61 0 11.22 0 17 0 C17.66 1.32 18.32 2.64 19 4 C12.73 3.34 6.46 2.68 0 2 C0 1.34 0 0.68 0 0 Z " fill="#C69B41" transform="translate(289,760)"/>
<path d="M0 0 C3.89006773 1.38780795 6.96558708 3.2152227 10.3125 5.625 C11.19550781 6.25664062 12.07851563 6.88828125 12.98828125 7.5390625 C13.65214844 8.02117187 14.31601562 8.50328125 15 9 C14.01 9 13.02 9 12 9 C11.01 9.495 11.01 9.495 10 10 C10.99 10.99 11.98 11.98 13 13 C12.67 13.66 12.34 14.32 12 15 C10.99106869 13.90398831 9.99311775 12.79786082 9 11.6875 C8.443125 11.07261719 7.88625 10.45773437 7.3125 9.82421875 C6 8 6 8 6 5 C4.03852126 3.61061923 2.03833424 2.2739589 0 1 C0 0.67 0 0.34 0 0 Z " fill="#EABA4F" transform="translate(761,345)"/>
<path d="M0 0 C0.33 0.99 0.66 1.98 1 3 C-0.74095679 4.82200133 -2.49177132 6.63229575 -4.25 8.4375 C-4.98669922 9.2119043 -4.98669922 9.2119043 -5.73828125 10.00195312 C-10.30164195 14.65658104 -10.30164195 14.65658104 -14 15 C-9.59156563 9.70987876 -4.92440206 4.81191572 0 0 Z " fill="#16170D" transform="translate(696,828)"/>
<path d="M0 0 C0.99 0.33 1.98 0.66 3 1 C2.48050781 1.44730469 1.96101562 1.89460937 1.42578125 2.35546875 C-2.52679654 5.78201031 -6.35827082 9.24446679 -10 13 C-10.99 12.67 -11.98 12.34 -13 12 C-11.21135158 10.18443212 -9.41928379 8.37248378 -7.625 6.5625 C-7.11710938 6.04623047 -6.60921875 5.52996094 -6.0859375 4.99804688 C-2.2265625 1.11328125 -2.2265625 1.11328125 0 0 Z " fill="#1F1E11" transform="translate(732,818)"/>
<path d="M0 0 C3.81212863 3.57136262 6.60613141 7.14746158 9.375 11.625 C9.74238281 12.19734375 10.10976563 12.7696875 10.48828125 13.359375 C11.5234375 15.0390625 11.5234375 15.0390625 13 18 C12.67 18.99 12.34 19.98 12 21 C9.22922903 18.75699493 8.25344721 16.30203892 6.9609375 13.04296875 C5.4151883 9.75668082 3.29964986 6.87614737 1.20703125 3.91796875 C0 2 0 2 0 0 Z " fill="#17160B" transform="translate(680,662)"/>
<path d="M0 0 C0.66 0 1.32 0 2 0 C1.42415568 2.38564077 0.77772405 4.66682784 0 7 C-0.66 7 -1.32 7 -2 7 C-2.2475 7.639375 -2.495 8.27875 -2.75 8.9375 C-4 11 -4 11 -6.078125 11.62890625 C-7.02945313 11.81259766 -7.02945313 11.81259766 -8 12 C-4 6 -4 6 0 0 Z " fill="#13160E" transform="translate(710,809)"/>
<path d="M0 0 C0.99 0 1.98 0 3 0 C2.67 1.98 2.34 3.96 2 6 C-1.96 6 -5.92 6 -10 6 C-6.71536341 3.81024227 -3.79303725 3.00193437 0 2 C0 1.34 0 0.68 0 0 Z " fill="#D6A43B" transform="translate(751,951)"/>
<path d="M0 0 C3.12270026 1.41115314 5.49653681 3.110624 8.0625 5.375 C8.73410156 5.96023438 9.40570312 6.54546875 10.09765625 7.1484375 C11.97541411 8.9760704 13.48949607 10.86364865 15 13 C13.68 13 12.36 13 11 13 C9.99260254 11.33779419 8.99477045 9.66979326 8 8 C5.94709558 6.06137256 3.81818803 4.25471441 1.64453125 2.453125 C1.10183594 1.97359375 0.55914062 1.4940625 0 1 C0 0.67 0 0.34 0 0 Z " fill="#D4A648" transform="translate(511,786)"/>
<path d="M0 0 C2.08326131 -0.02709444 4.16662441 -0.04643873 6.25 -0.0625 C7.41015625 -0.07410156 8.5703125 -0.08570313 9.765625 -0.09765625 C12.40977128 -0.01782092 14.49826091 0.21356222 17 1 C17 1.66 17 2.32 17 3 C17.99 3.33 18.98 3.66 20 4 C13.29221378 3.22602467 6.65425699 2.14231412 0 1 C0 0.67 0 0.34 0 0 Z " fill="#BC933D" transform="translate(436,776)"/>
<path d="M0 0 C3.96 0 7.92 0 12 0 C12 0.33 12 0.66 12 1 C7.545 1.495 7.545 1.495 3 2 C3 3.65 3 5.3 3 7 C2.01 7 1.02 7 0 7 C0 4.69 0 2.38 0 0 Z " fill="#CBA241" transform="translate(672,233)"/>
<path d="M0 0 C5.28 0.33 10.56 0.66 16 1 C16 1.66 16 2.32 16 3 C11.71 3 7.42 3 3 3 C3 2.34 3 1.68 3 1 C2.01 0.67 1.02 0.34 0 0 Z " fill="#C9A043" transform="translate(616,529)"/>
<path d="M0 0 C1.37095624 3.69037278 0.60010967 5.70883835 -0.9375 9.25 C-1.31777344 10.14203125 -1.69804687 11.0340625 -2.08984375 11.953125 C-2.39019531 12.62859375 -2.69054687 13.3040625 -3 14 C-3.99 14 -4.98 14 -6 14 C-4.50829734 9.0276578 -2.39542583 4.58154261 0 0 Z " fill="#CFA543" transform="translate(342,400)"/>
<path d="M0 0 C0.33 0.99 0.66 1.98 1 3 C-2.63 6.3 -6.26 9.6 -10 13 C-10.66 12.67 -11.32 12.34 -12 12 C-8.04 8.04 -4.08 4.08 0 0 Z " fill="#211C0F" transform="translate(436,316)"/>
<path d="M0 0 C0.99 0 1.98 0 3 0 C1.14687756 4.47837922 -1.35501313 6.28966476 -5.75 8.1875 C-6.4925 8.455625 -7.235 8.72375 -8 9 C-7.04270084 7.87411986 -6.08412105 6.7493285 -5.125 5.625 C-4.59132813 4.99851562 -4.05765625 4.37203125 -3.5078125 3.7265625 C-2.38567993 2.44163349 -1.20628025 1.20628025 0 0 Z " fill="#E6B74B" transform="translate(871,778)"/>
<path d="M0 0 C0 0.66 0 1.32 0 2 C-3.52376535 4.59100393 -6.63590392 5.70906026 -11 6 C-11.66 5.34 -12.32 4.68 -13 4 C-11.39850114 3.32694982 -9.79368971 2.66177773 -8.1875 2 C-7.29417969 1.62875 -6.40085937 1.2575 -5.48046875 0.875 C-3 0 -3 0 0 0 Z " fill="#262413" transform="translate(868,933)"/>
<path d="M0 0 C1.98 0.495 1.98 0.495 4 1 C4.33 3.97 4.66 6.94 5 10 C1.91910327 7.22719294 0.31224548 4.93673644 -1 1 C-0.67 0.67 -0.34 0.34 0 0 Z " fill="#D7A23D" transform="translate(559,855)"/>
<path d="M0 0 C0.99 0.66 1.98 1.32 3 2 C0.69 4.31 -1.62 6.62 -4 9 C-4.66 8.01 -5.32 7.02 -6 6 C-4.02 4.02 -2.04 2.04 0 0 Z " fill="#CC9F40" transform="translate(735,791)"/>
<path d="M0 0 C0.33 0 0.66 0 1 0 C2.51708428 11.52164009 2.51708428 11.52164009 0 17 C-0.66 17 -1.32 17 -2 17 C-1.34 11.39 -0.68 5.78 0 0 Z " fill="#352C13" transform="translate(855,784)"/>
<path d="M0 0 C0.33 0 0.66 0 1 0 C1.09688221 5.44693314 1.12862175 10.63904667 0 16 C-0.33 16 -0.66 16 -1 16 C-2.0006709 10.03654233 -2.0662997 5.71271093 0 0 Z " fill="#CBA144" transform="translate(643,541)"/>
<path d="M0 0 C1.29546919 3.88640757 0.37029611 4.94173375 -1.375 8.5625 C-1.83648437 9.53316406 -2.29796875 10.50382812 -2.7734375 11.50390625 C-3.51100644 13.00488253 -4.25207785 14.5041557 -5 16 C-5.66 16 -6.32 16 -7 16 C-5.35433477 10.31497465 -2.70967216 5.23318364 0 0 Z " fill="#18160B" transform="translate(375,397)"/>
<path d="M0 0 C0.66 0.66 1.32 1.32 2 2 C1.9765625 4.1640625 1.9765625 4.1640625 1.625 6.625 C1.51414062 7.44226563 1.40328125 8.25953125 1.2890625 9.1015625 C1.19367187 9.72804687 1.09828125 10.35453125 1 11 C0.34 11 -0.32 11 -1 11 C-1.02688151 9.35425434 -1.04634123 7.70838587 -1.0625 6.0625 C-1.07410156 5.14597656 -1.08570313 4.22945312 -1.09765625 3.28515625 C-1 1 -1 1 0 0 Z " fill="#D8A63F" transform="translate(648,227)"/>
<path d="M0 0 C1.32 0.66 2.64 1.32 4 2 C-1.445 4.475 -1.445 4.475 -7 7 C-7 6.01 -7 5.02 -7 4 C-1.921875 0.6796875 -1.921875 0.6796875 0 0 Z " fill="#151910" transform="translate(709,960)"/>
<path d="M0 0 C0.33 0 0.66 0 1 0 C2.07763474 4.49014476 2.37757467 6.33010946 0.0625 10.4375 C-0.618125 11.283125 -1.29875 12.12875 -2 13 C-3.45047396 10.09905209 -2.45356803 8.44027404 -1.5625 5.375 C-1.27503906 4.37210938 -0.98757813 3.36921875 -0.69140625 2.3359375 C-0.46324219 1.56507813 -0.23507812 0.79421875 0 0 Z " fill="#C3A043" transform="translate(690,859)"/>
<path d="M0 0 C0.66 0 1.32 0 2 0 C1.67 3.63 1.34 7.26 1 11 C0.01 11.33 -0.98 11.66 -2 12 C-1.34 8.04 -0.68 4.08 0 0 Z " fill="#C2993D" transform="translate(909,607)"/>
<path d="M0 0 C0.97099482 2.62168601 1.06599958 3.79692438 0.1875 6.5 C-0.84880972 8.68170468 -1.88817428 10.85576468 -3 13 C-3.66 13 -4.32 13 -5 13 C-3.58192622 8.52761347 -1.88695626 4.28853694 0 0 Z " fill="#18170D" transform="translate(1011,789)"/>
<path d="M0 0 C-3.63 0 -7.26 0 -11 0 C-10.67 -0.99 -10.34 -1.98 -10 -3 C-5.33945007 -4.80408384 -4.00163672 -3.00122754 0 0 Z " fill="#D19C35" transform="translate(513,957)"/>
<path d="M0 0 C0.66 0.66 1.32 1.32 2 2 C1.875 4.5 1.875 4.5 1 7 C-0.98 7.99 -0.98 7.99 -3 9 C-2.01 6.03 -1.02 3.06 0 0 Z " fill="#272715" transform="translate(729,771)"/>
<path d="M0 0 C4.42857143 5.14285714 4.42857143 5.14285714 5 9 C2.09303901 7.93411431 1.15567038 7.29651501 -0.3125 4.5 C-1 2 -1 2 0 0 Z " fill="#CFA143" transform="translate(718,676)"/>
<path d="M0 0 C1.65 0 3.3 0 5 0 C5 0.99 5 1.98 5 3 C3 4.6875 3 4.6875 1 6 C0.34 5.01 -0.32 4.02 -1 3 C-0.67 2.01 -0.34 1.02 0 0 Z " fill="#D2A33E" transform="translate(486,348)"/>
<path d="M0 0 C0.66 0.33 1.32 0.66 2 1 C2.125 4.375 2.125 4.375 2 8 C1.34 8.66 0.68 9.32 0 10 C-0.19412181 8.52168779 -0.38012131 7.04230684 -0.5625 5.5625 C-0.66691406 4.73878906 -0.77132812 3.91507813 -0.87890625 3.06640625 C-0.91886719 2.38449219 -0.95882812 1.70257813 -1 1 C-0.67 0.67 -0.34 0.34 0 0 Z " fill="#CDA340" transform="translate(605,228)"/>
<path d="M0 0 C0.66 0.33 1.32 0.66 2 1 C0.94124926 4.40312738 -0.00902154 7.01353231 -2 10 C-2.66 10 -3.32 10 -4 10 C-2.8905928 6.51329166 -1.73662334 3.22515763 0 0 Z " fill="#D3A742" transform="translate(421,421)"/>
<path d="M0 0 C-0.33 0.66 -0.66 1.32 -1 2 C-3.32156597 2.40729228 -5.6568787 2.74438677 -8 3 C-8.33 2.01 -8.66 1.02 -9 0 C-5.67465243 -1.10844919 -3.37817425 -0.84454356 0 0 Z " fill="#D1A33A" transform="translate(795,943)"/>
<path d="M0 0 C0.33 0 0.66 0 1 0 C1.8125 3.25 1.8125 3.25 2 7 C-0.4375 9.4375 -0.4375 9.4375 -3 11 C-2.01 7.37 -1.02 3.74 0 0 Z " fill="#2E2713" transform="translate(687,933)"/>
<path d="M0 0 C0.33 0.99 0.66 1.98 1 3 C-0.65 4.65 -2.3 6.3 -4 8 C-4.99 7.67 -5.98 7.34 -7 7 C-4.69 4.69 -2.38 2.38 0 0 Z " fill="#15160E" transform="translate(718,832)"/>
<path d="M0 0 C0.33 0 0.66 0 1 0 C1 2.64 1 5.28 1 8 C-1.64 7.67 -4.28 7.34 -7 7 C-4.35261084 5.5393715 -3.10551666 5 0 5 C0 3.35 0 1.7 0 0 Z " fill="#C49941" transform="translate(581,233)"/>
<path d="M0 0 C0.66 0.33 1.32 0.66 2 1 C-1.44615385 5.8 -1.44615385 5.8 -4.25 6.8125 C-5.11625 6.9053125 -5.11625 6.9053125 -6 7 C-4.60667426 3.63279613 -3.0210714 2.0140476 0 0 Z " fill="#E1B84F" transform="translate(685,965)"/>
<path d="M0 0 C1.32 0.66 2.64 1.32 4 2 C1.03 4.475 1.03 4.475 -2 7 C-2.33 6.34 -2.66 5.68 -3 5 C-1.5625 2.375 -1.5625 2.375 0 0 Z " fill="#DEB345" transform="translate(680,839)"/>
<path d="M0 0 C1.21236328 0.01353516 1.21236328 0.01353516 2.44921875 0.02734375 C3.37154297 0.04474609 3.37154297 0.04474609 4.3125 0.0625 C3.9825 1.0525 3.6525 2.0425 3.3125 3.0625 C-4.11607143 2.0625 -4.11607143 2.0625 -7.6875 1.0625 C-4.80538698 0.10179566 -2.98899956 -0.04331883 0 0 Z " fill="#B68F3A" transform="translate(963.6875,735.9375)"/>
<path d="M0 0 C-1.28519565 2.86697492 -2.57129254 4.97607712 -5 7 C-5.66 7 -6.32 7 -7 7 C-3.86206897 0 -3.86206897 0 0 0 Z " fill="#1A1C0F" transform="translate(799,905)"/>
<path d="M0 0 C0.99 0.66 1.98 1.32 3 2 C-0.51187196 4.40814077 -2.72656908 5.36629408 -7 5 C-2.25 1.125 -2.25 1.125 0 0 Z " fill="#141B11" transform="translate(863,795)"/>
<path d="M0 0 C0.99 0 1.98 0 3 0 C3.66 1.98 4.32 3.96 5 6 C4.34 6.66 3.68 7.32 3 8 C0 2.25 0 2.25 0 0 Z " fill="#D3A240" transform="translate(269,788)"/>
<path d="M0 0 C0 0.99 0 1.98 0 3 C-1.98 3.66 -3.96 4.32 -6 5 C-6.33 4.01 -6.66 3.02 -7 2 C-2.25 0 -2.25 0 0 0 Z " fill="#CDA040" transform="translate(922,748)"/>
<path d="M0 0 C2.86477034 1.05041579 3.83913226 1.70124563 5.3125 4.4375 C6 7 6 7 5 10 C4.34 8.02 3.68 6.04 3 4 C2.34 4 1.68 4 1 4 C0.67 2.68 0.34 1.36 0 0 Z " fill="#E4B450" transform="translate(720,684)"/>
<path d="M0 0 C1.96301592 3.50538557 2.95902388 7.13351728 4 11 C3.01 10.67 2.02 10.34 1 10 C-0.60725635 6.78548731 -0.05748185 3.56387464 0 0 Z " fill="#BF9642" transform="translate(353,642)"/>
<path d="M0 0 C0.33 0 0.66 0 1 0 C0.67 3.3 0.34 6.6 0 10 C-0.66 10 -1.32 10 -2 10 C-2.25 3.375 -2.25 3.375 0 0 Z " fill="#BA913F" transform="translate(941,596)"/>
<path d="M0 0 C2 2 2 2 2.125 5.125 C2.08375 6.07375 2.0425 7.0225 2 8 C1.01 8 0.02 8 -1 8 C-0.67 5.36 -0.34 2.72 0 0 Z " fill="#D2A543" transform="translate(566,890)"/>
<path d="M0 0 C1.74627478 2.61941217 2.38722388 4.03824877 3 7 C2.01 7.66 1.02 8.32 0 9 C-1.10844919 5.67465243 -0.84454356 3.37817425 0 0 Z " fill="#EBB64A" transform="translate(689,826)"/>
<path d="M0 0 C0.6875 1.6875 0.6875 1.6875 1 4 C-0.3125 6.75 -0.3125 6.75 -2 9 C-2.66 9 -3.32 9 -4 9 C-2.94124926 5.59687262 -1.99097846 2.98646769 0 0 Z " fill="#C9A042" transform="translate(693,817)"/>
<path d="M0 0 C0 0.66 0 1.32 0 2 C0.99 2.33 1.98 2.66 3 3 C1.741875 2.87625 0.48375 2.7525 -0.8125 2.625 C-1.87404297 2.52058594 -1.87404297 2.52058594 -2.95703125 2.4140625 C-5 2 -5 2 -8 0 C-4.71023192 -1.09658936 -3.28696233 -0.79953138 0 0 Z " fill="#C09740" transform="translate(325,765)"/>
<path d="M0 0 C2.97 0.33 5.94 0.66 9 1 C4.82091936 3.08954032 4.19589427 3.16552619 0 2 C0 1.34 0 0.68 0 0 Z " fill="#D1A340" transform="translate(951,738)"/>
<path d="M0 0 C2.97 0 5.94 0 9 0 C8.67 0.99 8.34 1.98 8 3 C5.125 3.1875 5.125 3.1875 2 3 C1.34 2.01 0.68 1.02 0 0 Z " fill="#CCA143" transform="translate(968,735)"/>
<path d="M0 0 C0.33 1.32 0.66 2.64 1 4 C-0.98 4.99 -2.96 5.98 -5 7 C-3.70700306 4.11562221 -2.34058637 2.12780579 0 0 Z " fill="#C19E3E" transform="translate(674,976)"/>
<path d="M0 0 C-0.33 0.66 -0.66 1.32 -1 2 C-3.97 1.67 -6.94 1.34 -10 1 C-10 0.67 -10 0.34 -10 0 C-6.33694766 -0.74926071 -3.57644848 -1.2380014 0 0 Z " fill="#CFA444" transform="translate(782,946)"/>
<path d="M0 0 C0.66 0 1.32 0 2 0 C4.1875 2.8125 4.1875 2.8125 6 6 C5.67 6.99 5.34 7.98 5 9 C4.16396622 7.68921847 3.3312426 6.37632511 2.5 5.0625 C2.0359375 4.33160156 1.571875 3.60070312 1.09375 2.84765625 C0 1 0 1 0 0 Z " fill="#DAAF4F" transform="translate(662,633)"/>
<path d="M0 0 C0.99 0.33 1.98 0.66 3 1 C0.03 3.475 0.03 3.475 -3 6 C-3 3 -3 3 -1.5 1.3125 C-0.7575 0.6628125 -0.7575 0.6628125 0 0 Z " fill="#13160E" transform="translate(448,305)"/>
</svg>
